<svg width="72" height="28" viewBox="0 0 72 28" fill="none" xmlns="http://www.w3.org/2000/svg">
<path fill-rule="evenodd" clip-rule="evenodd" d="M23.1468 6.01167C20.9458 3.50858 17.7142 2.00024 14.0345 2.00024C7.36412 2.00024 2 7.31411 2 14.0001C2 20.6858 7.36412 25.9997 14.0345 25.9997C17.7826 25.9997 21.0491 24.4231 23.25 21.8853L20.6024 19.6228C19.0546 21.44 16.7171 22.5712 14.0345 22.5712C9.39278 22.5712 5.50715 18.6286 5.50715 14.0001C5.50715 9.37158 9.39278 5.4284 14.0345 5.4284C16.7171 5.4284 18.9862 6.59435 20.6024 8.41152L23.1468 6.01167Z" fill="#222222"/>
<path fill-rule="evenodd" clip-rule="evenodd" d="M38.2846 22.571C42.9472 22.571 46.753 18.594 46.753 13.9999C46.753 9.37134 42.9472 5.42816 38.2846 5.42816C33.6222 5.42816 29.7473 9.37134 29.7473 13.9999C29.7473 18.594 33.6222 22.571 38.2846 22.571ZM38.2507 2C44.9017 2 50.2503 7.38269 50.2503 13.9999C50.2503 20.6167 44.9017 26 38.2507 26C31.6336 26 26.25 20.6167 26.25 13.9999C26.25 7.38269 31.6336 2 38.2507 2Z" fill="#222222"/>
<path fill-rule="evenodd" clip-rule="evenodd" d="M55.5401 19.9311L53.2502 22.6054C55.3694 24.9367 58.3775 26 61.5223 26C65.9666 26 70.0002 23.2222 70.0002 19.0057C70.0002 11.1197 57.215 13.143 57.215 8.30862C57.215 6.35409 59.1298 5.42874 61.5563 5.42874C63.574 5.42874 65.5569 6.35409 66.9241 7.41739L68.7354 4.60546C66.6848 2.92594 64.1207 2 61.4886 2C57.6596 2 53.7283 4.2625 53.7283 8.37658C53.7283 16.2629 66.5135 14.2743 66.5135 19.0057C66.5135 21.4736 64.0181 22.571 61.5223 22.571C59.2664 22.571 56.8736 21.2685 55.5401 19.9311Z" fill="#222222"/>
</svg>
