<svg width="593" height="390" viewBox="0 0 593 390" fill="none" xmlns="http://www.w3.org/2000/svg">
<path fill-rule="evenodd" clip-rule="evenodd" d="M415.963 11.8525C437.58 1.27335 448.311 2.68159 448.543 13.3694C448.854 27.2692 446.779 45.7023 445.299 59.0892C437.273 131.7 423.845 191.046 422.829 265.608C458.154 174.812 487.801 111.702 525.937 33.9626C538.065 9.23161 545.789 13.8345 555.732 9.43155C594.517 -7.69327 595.971 2.82502 590.9 23.7442C572.086 101.358 524.002 345.66 516.642 383.274C514.505 394.158 502.609 389.546 499.496 385.291C485.695 366.349 470.151 366.049 471.898 353.449C480.546 290.731 511.69 133.378 519.807 96.2944C478.391 180.532 435.469 285.832 413.437 345.534C408.756 358.213 400.249 357.283 394.951 348.003C387.495 334.977 373.033 328.327 370.646 312.932C363.076 263.97 379.289 170.653 381.553 111.611C359.013 176.099 321.178 301.314 304.606 357.882C297.754 381.292 274.999 377.472 281.05 354.657C306.239 259.715 360.484 91.8132 383.979 31.4287C389.496 17.242 403.953 17.7288 415.963 11.8525Z" fill="#E50010"/>
<path fill-rule="evenodd" clip-rule="evenodd" d="M281.171 0.182624C273.85 -1.56898 252.659 9.80121 239.624 12.0135C235.486 12.7176 231.524 17.0988 230.158 20.1978C209.29 67.7735 190.607 113.111 174.411 154.428C153.692 157.94 129.444 162.56 102.346 168.606C121.725 119.157 141.349 70.3944 160.501 23.4533C169.919 0.360825 145.115 -1.82107 135.5 21.5973C123.012 51.9787 99.6008 108.917 73.6934 175.299C54.6427 179.937 34.4756 185.231 13.3583 191.281C-1.97511 195.675 -2.64063 199.726 4.00587 208.858C7.69253 213.939 15.2322 213.434 18.6868 217.055C27.6452 226.439 33.0613 237.67 49.0821 239.369C34.7733 277.279 20.5039 316.375 7.57431 354.014C-0.538973 377.65 22.5837 382.483 31.4719 357.479C45.7939 317.174 60.9127 276.375 76.4124 235.701C89.3333 232.719 120.617 226.035 149.537 219.811C126.581 282.19 111.488 329.579 105.809 352.641C104.71 357.074 106.532 359.539 107.46 361.347C115.188 372.526 122.544 372.982 132.514 386.804C135.228 390.576 144.252 392.61 147.343 383.331C168.575 319.621 190.428 259.845 210.818 206.254C219.282 204.416 234.519 200.765 243.853 186.952C260.422 162.438 265.203 167.41 269.174 159.956C274.161 150.599 270.864 141.81 253.162 143.983C253.162 143.983 246.472 144.453 234.142 145.852C253.753 95.7122 270.908 53.1913 283.281 20.828C287.476 9.85336 288.028 1.82122 281.171 0.182624Z" fill="#E50010"/>
<path fill-rule="evenodd" clip-rule="evenodd" d="M235.198 303.413C228.792 307.303 223.687 303.122 232.308 291.369C233.757 289.401 235.224 287.479 236.713 285.589C238.179 290.031 239.699 294.59 241.227 299.045C239.235 300.692 237.221 302.183 235.198 303.413ZM246.671 247.696C245.077 249.478 243.575 251.078 242.091 252.608C241.715 251.269 241.373 250.052 241.097 249.026C236.241 230.724 257.346 235.731 246.671 247.696ZM257.78 283.758C256.287 285.04 254.741 286.479 253.16 287.987C251.374 282.554 249.588 277.026 247.941 271.814C252.92 265.769 257.701 259.805 261.782 253.499C278.739 227.294 245.214 212.182 230.765 229.202C223.054 238.282 224.981 247.192 227.104 254.833C227.761 257.21 228.768 260.592 230.012 264.634C225.883 268.837 220.944 274.092 214.372 281.663C198.005 300.544 202.462 325.053 219.998 330.465C230.655 333.755 240.629 328.983 249.25 321.398C249.684 322.506 250.096 323.576 250.494 324.567C255.069 335.954 269.256 332.508 263.857 318.76C262.916 316.374 261.742 313.157 260.42 309.419C263.205 305.916 265.744 302.365 267.99 299.058C278.437 283.684 268.345 274.666 257.78 283.758Z" fill="#E50010"/>
</svg>
